<?xml version="1.0" encoding="UTF-8" standalone="no"?>
<!-- Generator: Adobe Illustrator 16.0.0, SVG Export Plug-In . SVG Version: 6.00 Build 0)  -->

<svg
   xmlns:dc="http://purl.org/dc/elements/1.1/"
   xmlns:cc="http://creativecommons.org/ns#"
   xmlns:rdf="http://www.w3.org/1999/02/22-rdf-syntax-ns#"
   xmlns:svg="http://www.w3.org/2000/svg"
   xmlns="http://www.w3.org/2000/svg"
   xmlns:sodipodi="http://sodipodi.sourceforge.net/DTD/sodipodi-0.dtd"
   xmlns:inkscape="http://www.inkscape.org/namespaces/inkscape"
   version="1.1"
   id="Ebene_1"
   x="0px"
   y="0px"
   width="789.87201"
   height="251.69"
   viewBox="0 0 789.872 251.68999"
   enable-background="new 0 0 841.89 595.275"
   xml:space="preserve"
   inkscape:version="0.48.4 r9939"
   sodipodi:docname="HeaderIcon.svg"><metadata
   id="metadata4351"><rdf:RDF><cc:Work
       rdf:about=""><dc:format>image/svg+xml</dc:format><dc:type
         rdf:resource="http://purl.org/dc/dcmitype/StillImage" /></cc:Work></rdf:RDF></metadata><defs
   id="defs4349" /><sodipodi:namedview
   pagecolor="#ffffff"
   bordercolor="#666666"
   borderopacity="1"
   objecttolerance="10"
   gridtolerance="10"
   guidetolerance="10"
   inkscape:pageopacity="0"
   inkscape:pageshadow="2"
   inkscape:window-width="982"
   inkscape:window-height="681"
   id="namedview4347"
   showgrid="false"
   fit-margin-top="0"
   fit-margin-left="0"
   fit-margin-right="0"
   fit-margin-bottom="0"
   inkscape:zoom="0.3964554"
   inkscape:cx="386.76001"
   inkscape:cy="268.56049"
   inkscape:window-x="353"
   inkscape:window-y="129"
   inkscape:window-maximized="0"
   inkscape:current-layer="Ebene_1" />
<g
   id="g4281"
   transform="translate(-34.185,-314.50801)">
	<g
   id="g4283">
		<path
   d="m 299.121,456.224 h 12.063 v 45.188 h -12.063 v -45.188 z"
   id="path4285"
   inkscape:connector-curvature="0"
   style="fill:#054173" />
		<path
   d="m 355.023,481.818 v 19.593 h -11.375 v -17.207 c 0,-2.629 -0.467,-4.585 -1.4,-5.868 -0.933,-1.283 -2.354,-1.925 -4.264,-1.925 -1.994,0 -3.59,0.807 -4.788,2.418 -1.199,1.611 -1.798,3.774 -1.798,6.488 v 16.094 h -11.5 v -33.5 h 10.449 v 6.017 c 1.314,-2.244 3.01,-3.953 5.088,-5.129 2.077,-1.175 4.42,-1.763 7.027,-1.763 4.092,0 7.208,1.256 9.349,3.768 2.141,2.512 3.212,6.182 3.212,11.014 z"
   id="path4287"
   inkscape:connector-curvature="0"
   style="fill:#054173" />
		<path
   d="m 387.633,468.793 -1.115,8.102 c -1.532,-0.869 -3.08,-1.531 -4.645,-1.987 -1.564,-0.455 -3.059,-0.684 -4.484,-0.684 -1.405,0 -2.491,0.249 -3.257,0.747 -0.766,0.498 -1.148,1.203 -1.148,2.114 0,1.188 1.566,2.204 4.701,3.052 0.98,0.276 1.758,0.499 2.334,0.668 3.568,1.06 6.059,2.352 7.471,3.877 1.412,1.525 2.119,3.611 2.119,6.26 0,3.538 -1.381,6.324 -4.142,8.357 -2.761,2.033 -6.562,3.05 -11.403,3.05 -2.061,0 -4.094,-0.159 -6.101,-0.477 -2.008,-0.318 -3.978,-0.794 -5.909,-1.429 l 0.73,-8.575 c 1.613,0.826 3.291,1.457 5.033,1.892 1.741,0.435 3.504,0.651 5.288,0.651 1.678,0 2.941,-0.228 3.791,-0.684 0.85,-0.455 1.274,-1.139 1.274,-2.051 0,-1.355 -1.726,-2.542 -5.177,-3.56 -0.852,-0.254 -1.522,-0.456 -2.013,-0.604 -3.495,-1.146 -5.931,-2.425 -7.308,-3.837 -1.377,-1.412 -2.065,-3.265 -2.065,-5.558 0,-3.502 1.38,-6.225 4.141,-8.168 2.761,-1.942 6.647,-2.914 11.659,-2.914 1.635,0 3.312,0.149 5.032,0.447 1.721,0.3 3.452,0.737 5.194,1.311 z"
   id="path4289"
   inkscape:connector-curvature="0"
   style="fill:#054173" />
		<path
   d="m 410.315,456.536 v 11.375 h 8.185 v 8.25 h -8.185 v 11.58 c 0,2.488 0.401,4.243 1.205,5.264 0.804,1.021 2.179,1.531 4.124,1.531 0.275,0 0.624,-0.037 1.047,-0.111 0.423,-0.074 1.025,-0.208 1.809,-0.399 l 0.19,7.45 c -1.229,0.279 -2.419,0.495 -3.572,0.646 -1.154,0.15 -2.281,0.227 -3.381,0.227 -4.53,0 -7.806,-1.119 -9.827,-3.357 -2.021,-2.238 -3.032,-5.882 -3.032,-10.931 v -11.899 h -6.438 v -8.25 h 7.073 v -7.721 l 10.802,-3.655 z"
   id="path4291"
   inkscape:connector-curvature="0"
   style="fill:#054173" />
		<path
   d="m 424.929,452.536 h 11.5 v 9.313 h -11.5 v -9.313 z m 0,15.375 h 11.5 v 33.5 h -11.5 v -33.5 z"
   id="path4293"
   inkscape:connector-curvature="0"
   style="fill:#054173" />
		<path
   d="m 459.761,456.536 v 11.375 h 8.185 v 8.25 h -8.185 v 11.58 c 0,2.488 0.401,4.243 1.205,5.264 0.804,1.021 2.179,1.531 4.124,1.531 0.275,0 0.624,-0.037 1.047,-0.111 0.423,-0.074 1.025,-0.208 1.809,-0.399 l 0.19,7.45 c -1.229,0.279 -2.419,0.495 -3.572,0.646 -1.154,0.15 -2.281,0.227 -3.381,0.227 -4.53,0 -7.806,-1.119 -9.827,-3.357 -2.021,-2.238 -3.032,-5.882 -3.032,-10.931 v -11.899 h -6.438 v -8.25 h 7.073 v -7.721 l 10.802,-3.655 z"
   id="path4295"
   inkscape:connector-curvature="0"
   style="fill:#054173" />
		<path
   d="m 473.688,467.911 h 11.438 v 16.871 c 0,2.627 0.466,4.587 1.399,5.879 0.933,1.292 2.354,1.938 4.265,1.938 2.163,0 3.802,-0.879 4.915,-2.637 1.113,-1.758 1.671,-4.332 1.671,-7.722 v -14.329 h 11.5 v 33.5 h -10.449 v -6.29 c -1.314,2.231 -3.006,3.932 -5.072,5.1 -2.066,1.169 -4.414,1.753 -7.043,1.753 -4.112,0 -7.244,-1.258 -9.396,-3.773 -2.152,-2.516 -3.228,-6.184 -3.228,-11.003 v -19.287 z"
   id="path4297"
   inkscape:connector-curvature="0"
   style="fill:#054173" />
		<path
   d="m 532.147,456.536 v 11.375 h 8.185 v 8.25 h -8.185 v 11.58 c 0,2.488 0.401,4.243 1.205,5.264 0.804,1.021 2.179,1.531 4.124,1.531 0.275,0 0.624,-0.037 1.047,-0.111 0.423,-0.074 1.025,-0.208 1.809,-0.399 l 0.19,7.45 c -1.229,0.279 -2.419,0.495 -3.572,0.646 -1.154,0.15 -2.281,0.227 -3.381,0.227 -4.53,0 -7.806,-1.119 -9.827,-3.357 -2.021,-2.238 -3.032,-5.882 -3.032,-10.931 v -11.899 h -6.438 v -8.25 h 7.073 v -7.721 l 10.802,-3.655 z"
   id="path4299"
   inkscape:connector-curvature="0"
   style="fill:#054173" />
		<path
   d="m 590.156,452.676 -0.699,7.84 c -0.466,-0.211 -0.937,-0.375 -1.413,-0.492 -0.477,-0.116 -0.958,-0.175 -1.444,-0.175 -1.63,0 -2.82,0.487 -3.571,1.46 -0.752,0.974 -1.127,2.508 -1.127,4.603 v 2 h 8 v 8.313 h -8 v 25.188 h -11.313 v -25.188 h -7.063 v -8.313 h 7.063 v -3.047 c 0,-4.307 1.096,-7.543 3.287,-9.707 2.191,-2.164 5.458,-3.246 9.8,-3.246 1.271,0 2.436,0.064 3.494,0.191 1.058,0.127 2.055,0.318 2.986,0.573 z"
   id="path4301"
   inkscape:connector-curvature="0"
   style="fill:#054173" />
		<path
   d="m 594.501,467.911 h 11.438 v 16.871 c 0,2.627 0.466,4.587 1.399,5.879 0.933,1.292 2.354,1.938 4.265,1.938 2.163,0 3.802,-0.879 4.915,-2.637 1.113,-1.758 1.671,-4.332 1.671,-7.722 v -14.329 h 11.5 v 33.5 H 619.24 v -6.29 c -1.314,2.231 -3.006,3.932 -5.072,5.1 -2.066,1.169 -4.414,1.753 -7.043,1.753 -4.112,0 -7.244,-1.258 -9.396,-3.773 -2.152,-2.516 -3.228,-6.184 -3.228,-11.003 v -19.287 z m 8.187,-14.562 h 7.938 v 8.563 h -7.938 v -8.563 z m 11.5,0 h 8 v 8.563 h -8 v -8.563 z"
   id="path4303"
   inkscape:connector-curvature="0"
   style="fill:#054173" />
		<path
   d="m 662.336,467.411 -0.604,9.885 c -0.467,-0.19 -0.987,-0.333 -1.56,-0.429 -0.573,-0.096 -1.24,-0.144 -2.003,-0.144 -2.736,0 -4.799,0.881 -6.188,2.641 -1.389,1.761 -2.083,4.349 -2.083,7.763 v 14.284 h -11.5 v -33.5 h 10.258 v 6.395 c 1.166,-2.476 2.587,-4.306 4.263,-5.491 1.676,-1.185 3.658,-1.778 5.949,-1.778 0.594,0 1.675,0.115 3.245,0.344 0.106,0.02 0.18,0.03 0.223,0.03 z"
   id="path4305"
   inkscape:connector-curvature="0"
   style="fill:#054173" />
		<path
   d="m 299.121,520.072 h 12.063 v 36.25 h 18.188 v 8.938 h -30.25 v -45.188 z"
   id="path4307"
   inkscape:connector-curvature="0"
   style="fill:#054173" />
		<path
   d="m 367.637,549.158 v 2.789 h -23.498 c 0.232,2.176 1.176,3.855 2.828,5.038 1.652,1.184 3.877,1.774 6.674,1.774 1.673,0 3.441,-0.229 5.307,-0.688 1.864,-0.458 3.781,-1.146 5.752,-2.063 v 8.153 c -1.865,0.678 -3.81,1.186 -5.833,1.525 -2.023,0.339 -4.137,0.509 -6.34,0.509 -6.104,0 -10.871,-1.611 -14.304,-4.835 -3.433,-3.224 -5.148,-7.699 -5.148,-13.426 0,-5.217 1.584,-9.363 4.753,-12.438 3.169,-3.075 7.445,-4.613 12.83,-4.613 5.427,0 9.613,1.584 12.56,4.752 2.947,3.168 4.419,7.678 4.419,13.523 z m -10.125,-3.961 c -0.234,-2.257 -0.956,-4.029 -2.165,-5.317 -1.21,-1.288 -2.749,-1.933 -4.617,-1.933 -1.847,0 -3.364,0.645 -4.553,1.933 -1.189,1.288 -1.911,3.061 -2.165,5.317 h 13.5 z"
   id="path4309"
   inkscape:connector-curvature="0"
   style="fill:#054173" />
		<path
   d="m 397.799,531.26 -0.604,9.885 c -0.467,-0.19 -0.987,-0.333 -1.56,-0.429 -0.573,-0.096 -1.24,-0.144 -2.003,-0.144 -2.736,0 -4.799,0.881 -6.188,2.641 -1.389,1.761 -2.083,4.349 -2.083,7.763 v 14.284 h -11.5 v -33.5 h 10.258 v 6.395 c 1.166,-2.476 2.587,-4.306 4.263,-5.491 1.676,-1.185 3.658,-1.778 5.949,-1.778 0.594,0 1.675,0.115 3.245,0.344 0.106,0.02 0.18,0.03 0.223,0.03 z"
   id="path4311"
   inkscape:connector-curvature="0"
   style="fill:#054173" />
		<path
   d="m 437.4,545.667 v 19.593 h -11.375 v -17.207 c 0,-2.629 -0.467,-4.585 -1.4,-5.868 -0.933,-1.283 -2.354,-1.925 -4.264,-1.925 -1.994,0 -3.59,0.807 -4.788,2.418 -1.199,1.611 -1.798,3.774 -1.798,6.488 v 16.094 h -11.5 v -33.5 h 10.449 v 6.017 c 1.314,-2.244 3.01,-3.953 5.088,-5.129 2.077,-1.175 4.42,-1.763 7.027,-1.763 4.092,0 7.208,1.256 9.349,3.768 2.141,2.512 3.212,6.182 3.212,11.014 z"
   id="path4313"
   inkscape:connector-curvature="0"
   style="fill:#054173" />
		<path
   d="m 443.485,542.072 h 17.375 v 8.563 h -17.375 v -8.563 z"
   id="path4315"
   inkscape:connector-curvature="0"
   style="fill:#054173" />
		<path
   d="m 467.566,520.072 h 12.063 v 45.188 h -12.063 v -45.188 z"
   id="path4317"
   inkscape:connector-curvature="0"
   style="fill:#054173" />
		<path
   d="m 523.469,545.667 v 19.593 h -11.375 v -17.207 c 0,-2.629 -0.467,-4.585 -1.4,-5.868 -0.933,-1.283 -2.354,-1.925 -4.264,-1.925 -1.994,0 -3.59,0.807 -4.788,2.418 -1.199,1.611 -1.798,3.774 -1.798,6.488 v 16.094 h -11.5 v -33.5 h 10.449 v 6.017 c 1.314,-2.244 3.01,-3.953 5.088,-5.129 2.077,-1.175 4.42,-1.763 7.027,-1.763 4.092,0 7.208,1.256 9.349,3.768 2.141,2.512 3.212,6.182 3.212,11.014 z"
   id="path4319"
   inkscape:connector-curvature="0"
   style="fill:#054173" />
		<path
   d="m 566.742,545.667 v 19.593 h -11.375 v -17.207 c 0,-2.629 -0.467,-4.585 -1.4,-5.868 -0.933,-1.283 -2.354,-1.925 -4.264,-1.925 -1.994,0 -3.59,0.807 -4.788,2.418 -1.199,1.611 -1.798,3.774 -1.798,6.488 v 16.094 h -11.5 v -33.5 h 10.449 v 6.017 c 1.314,-2.244 3.01,-3.953 5.088,-5.129 2.077,-1.175 4.42,-1.763 7.027,-1.763 4.092,0 7.208,1.256 9.349,3.768 2.141,2.512 3.212,6.182 3.212,11.014 z"
   id="path4321"
   inkscape:connector-curvature="0"
   style="fill:#054173" />
		<path
   d="m 592.17,530.885 c 6.045,0 10.771,1.56 14.175,4.677 3.404,3.118 5.107,7.445 5.107,12.98 0,5.493 -1.703,9.799 -5.107,12.916 -3.404,3.118 -8.13,4.677 -14.175,4.677 -6.024,0 -10.733,-1.559 -14.127,-4.677 -3.395,-3.117 -5.091,-7.423 -5.091,-12.916 0,-5.535 1.696,-9.862 5.091,-12.98 3.394,-3.118 8.103,-4.677 14.127,-4.677 z m 0.001,8 c -2.162,0 -3.917,0.877 -5.263,2.63 -1.346,1.754 -2.019,4.075 -2.019,6.965 0,2.848 0.673,5.147 2.019,6.9 1.346,1.754 3.101,2.63 5.263,2.63 2.204,0 3.969,-0.865 5.294,-2.598 1.324,-1.731 1.987,-4.042 1.987,-6.933 0,-2.911 -0.663,-5.238 -1.987,-6.98 -1.325,-1.742 -3.09,-2.614 -5.294,-2.614 z"
   id="path4323"
   inkscape:connector-curvature="0"
   style="fill:#054173" />
		<path
   d="m 614.478,531.76 h 12.412 l 7.033,23.129 7.097,-23.129 h 11.521 l -12.571,33.5 h -12.952 l -12.54,-33.5 z"
   id="path4325"
   inkscape:connector-curvature="0"
   style="fill:#054173" />
		<path
   d="m 687.975,547.724 v 17.536 h -9.954 l -0.254,-5.246 c -1.36,1.938 -3.002,3.359 -4.925,4.264 -1.923,0.905 -4.244,1.357 -6.963,1.357 -3.399,0 -6.108,-0.964 -8.127,-2.894 -2.019,-1.93 -3.027,-4.506 -3.027,-7.729 0,-3.71 1.465,-6.461 4.396,-8.253 2.931,-1.791 7.443,-2.688 13.538,-2.688 h 4.504 v -0.445 c 0,-1.809 -0.701,-3.197 -2.103,-4.165 -1.402,-0.968 -3.439,-1.452 -6.114,-1.452 -1.316,0 -2.813,0.229 -4.491,0.688 -1.678,0.459 -3.482,1.125 -5.414,2 l -0.19,-7.543 c 1.867,-0.787 3.888,-1.373 6.063,-1.757 2.175,-0.383 4.567,-0.575 7.178,-0.575 5.475,0 9.491,1.361 12.048,4.083 2.557,2.722 3.835,6.994 3.835,12.819 z m -12.761,2.286 c -3.387,0 -5.825,0.365 -7.315,1.095 -1.491,0.729 -2.236,1.897 -2.236,3.504 0,1.164 0.398,2.104 1.197,2.823 0.799,0.719 1.858,1.078 3.179,1.078 2.087,0 3.796,-0.697 5.127,-2.093 1.331,-1.396 1.997,-3.214 1.997,-5.456 v -0.951 h -1.949 z"
   id="path4327"
   inkscape:connector-curvature="0"
   style="fill:#054173" />
		<path
   d="m 710.648,520.385 v 11.375 h 8.185 v 8.25 h -8.185 v 11.58 c 0,2.488 0.401,4.243 1.205,5.264 0.804,1.021 2.179,1.531 4.124,1.531 0.275,0 0.624,-0.037 1.047,-0.111 0.423,-0.074 1.025,-0.208 1.809,-0.399 l 0.19,7.45 c -1.229,0.279 -2.419,0.495 -3.572,0.646 -1.154,0.15 -2.281,0.227 -3.381,0.227 -4.53,0 -7.806,-1.119 -9.827,-3.357 -2.021,-2.238 -3.032,-5.882 -3.032,-10.931 v -11.9 h -6.438 v -8.25 h 7.073 v -7.721 l 10.802,-3.654 z"
   id="path4329"
   inkscape:connector-curvature="0"
   style="fill:#054173" />
		<path
   d="m 725.262,516.385 h 11.5 v 9.313 h -11.5 v -9.313 z m 0,15.375 h 11.5 v 33.5 h -11.5 v -33.5 z"
   id="path4331"
   inkscape:connector-curvature="0"
   style="fill:#054173" />
		<path
   d="m 762.812,530.885 c 6.045,0 10.771,1.56 14.175,4.677 3.404,3.118 5.107,7.445 5.107,12.98 0,5.493 -1.703,9.799 -5.107,12.916 -3.404,3.118 -8.13,4.677 -14.175,4.677 -6.024,0 -10.733,-1.559 -14.127,-4.677 -3.395,-3.117 -5.091,-7.423 -5.091,-12.916 0,-5.535 1.696,-9.862 5.091,-12.98 3.393,-3.118 8.102,-4.677 14.127,-4.677 z m 10e-4,8 c -2.162,0 -3.917,0.877 -5.263,2.63 -1.346,1.754 -2.019,4.075 -2.019,6.965 0,2.848 0.673,5.147 2.019,6.9 1.346,1.754 3.101,2.63 5.263,2.63 2.204,0 3.969,-0.865 5.294,-2.598 1.324,-1.731 1.987,-4.042 1.987,-6.933 0,-2.911 -0.663,-5.238 -1.987,-6.98 -1.326,-1.742 -3.09,-2.614 -5.294,-2.614 z"
   id="path4333"
   inkscape:connector-curvature="0"
   style="fill:#054173" />
		<path
   d="m 824.057,545.667 v 19.593 h -11.375 v -17.207 c 0,-2.629 -0.467,-4.585 -1.4,-5.868 -0.933,-1.283 -2.354,-1.925 -4.264,-1.925 -1.994,0 -3.59,0.807 -4.788,2.418 -1.199,1.611 -1.798,3.774 -1.798,6.488 v 16.094 h -11.5 v -33.5 h 10.449 v 6.017 c 1.314,-2.244 3.01,-3.953 5.088,-5.129 2.077,-1.175 4.42,-1.763 7.027,-1.763 4.092,0 7.208,1.256 9.349,3.768 2.141,2.512 3.212,6.182 3.212,11.014 z"
   id="path4335"
   inkscape:connector-curvature="0"
   style="fill:#054173" />
	</g>
</g>
<path
   d="M 1.878,9.8604744e-4 H 0 V 71.795986 h 71.328 l 0.018,-1.861 c 0,-0.021 0.007,-0.05 0.007,-0.1 0,-0.064 0.004,-0.15 0.004,-0.244 C 71.356,31.275986 40.185,0.06498605 1.878,9.8604744e-4 z"
   id="path4337"
   inkscape:connector-curvature="0"
   style="fill:#507a9d" />
<rect
   x="1.3732911e-006"
   y="96.213005"
   width="71.356003"
   height="154.157"
   id="rect4339"
   style="fill:#054173" />
<path
   d="M 153.581,65.461986 C 151.429,28.670986 121.381,0.05898605 84.305,9.8604744e-4 H 82.427 V 250.36999 H 153.78 V 65.461986 h -0.199 z"
   id="path4341"
   inkscape:connector-curvature="0"
   style="fill:#054173" />
<path
   d="m 166.736,9.8604744e-4 h -1.875 V 71.795986 h 71.354 v -1.99 c 0,-0.063 0.003,-0.136 0.003,-0.215 0,-38.315 -31.171,-69.52599995 -69.482,-69.58999995256 z"
   id="path4343"
   inkscape:connector-curvature="0"
   style="fill:#507a9d" />
<rect
   x="164.862"
   y="96.213005"
   width="71.356003"
   height="154.157"
   id="rect4345"
   style="fill:#054173" />
</svg>