<?xml version="1.0" encoding="UTF-8" standalone="no"?>
<!-- Generator: Adobe Illustrator 16.0.3, SVG Export Plug-In . SVG Version: 6.00 Build 0)  -->

<svg
   xmlns:dc="http://purl.org/dc/elements/1.1/"
   xmlns:cc="http://creativecommons.org/ns#"
   xmlns:rdf="http://www.w3.org/1999/02/22-rdf-syntax-ns#"
   xmlns:svg="http://www.w3.org/2000/svg"
   xmlns="http://www.w3.org/2000/svg"
   xmlns:sodipodi="http://sodipodi.sourceforge.net/DTD/sodipodi-0.dtd"
   xmlns:inkscape="http://www.inkscape.org/namespaces/inkscape"
   version="1.1"
   id="Ebene_1"
   x="0px"
   y="0px"
   width="802.21997"
   height="802.21997"
   viewBox="0 0 802.21995 802.21994"
   enable-background="new 0 0 841.89 595.28"
   xml:space="preserve"
   inkscape:version="0.48.4 r9939"
   sodipodi:docname="HeaderIcon.svg"><metadata
   id="metadata43"><rdf:RDF><cc:Work
       rdf:about=""><dc:format>image/svg+xml</dc:format><dc:type
         rdf:resource="http://purl.org/dc/dcmitype/StillImage" /></cc:Work></rdf:RDF></metadata><defs
   id="defs41" /><sodipodi:namedview
   pagecolor="#ffffff"
   bordercolor="#666666"
   borderopacity="1"
   objecttolerance="10"
   gridtolerance="10"
   guidetolerance="10"
   inkscape:pageopacity="0"
   inkscape:pageshadow="2"
   inkscape:window-width="1011"
   inkscape:window-height="669"
   id="namedview39"
   showgrid="false"
   inkscape:zoom="0.39645207"
   inkscape:cx="111.27335"
   inkscape:cy="144.50757"
   inkscape:window-x="0"
   inkscape:window-y="0"
   inkscape:window-maximized="0"
   inkscape:current-layer="Ebene_1"
   fit-margin-top="0"
   fit-margin-left="0"
   fit-margin-right="0"
   fit-margin-bottom="0" />
<g
   id="g3"
   transform="translate(-8.2480873,252.22171)">
	<path
   d="m 360.744,312.373 c 3.693,0 6.581,0.775 8.653,2.322 2.078,1.545 3.115,3.627 3.115,6.256 0,2.788 -1.022,4.988 -3.072,6.609 -2.054,1.62 -4.9,2.431 -8.546,2.431 h -37.515 v 13.517 h 35.767 c 3.699,0 6.596,0.782 8.696,2.355 2.102,1.563 3.152,3.692 3.152,6.375 0,2.783 -1.013,4.954 -3.038,6.501 -2.027,1.54 -4.862,2.307 -8.504,2.307 h -36.073 v 38.426 h 37.365 c 3.646,0 6.52,0.822 8.616,2.473 2.101,1.643 3.152,3.882 3.152,6.714 0,2.933 -1.022,5.233 -3.072,6.878 -2.054,1.648 -4.9,2.463 -8.546,2.463 h -43.743 c -5.164,0 -8.707,-0.909 -10.633,-2.732 -1.921,-1.824 -2.883,-5.116 -2.883,-9.875 V 324.83 c 0,-4.711 0.948,-7.956 2.847,-9.751 1.902,-1.806 5.458,-2.704 10.67,-2.704 h 43.592 z"
   id="path5"
   inkscape:connector-curvature="0"
   style="fill:#762282" />
	<path
   d="m 406.61,360.896 v 46.093 c 0,3.643 -0.839,6.497 -2.506,8.547 -1.673,2.054 -4,3.071 -6.988,3.071 -3.292,0 -5.822,-0.994 -7.593,-2.998 -1.771,-1.998 -2.657,-4.874 -2.657,-8.62 v -83.684 c 0,-3.798 0.887,-6.689 2.657,-8.69 1.771,-1.998 4.301,-3.002 7.593,-3.002 2.988,0 5.314,1.036 6.988,3.114 1.667,2.077 2.506,4.933 2.506,8.578 v 20.504 h 37.815 v -20.504 c 0,-3.693 0.872,-6.562 2.62,-8.61 1.747,-2.054 4.188,-3.082 7.331,-3.082 3.138,0 5.554,1.014 7.249,3.039 1.695,2.025 2.544,4.908 2.544,8.653 v 83.684 c 0,3.694 -0.849,6.558 -2.544,8.579 -1.695,2.025 -4.111,3.039 -7.249,3.039 -3.143,0 -5.584,-1.014 -7.331,-3.039 -1.748,-2.021 -2.62,-4.885 -2.62,-8.579 V 360.896 H 406.61 z"
   id="path7"
   inkscape:connector-curvature="0"
   style="fill:#762282" />
	<path
   d="m 475.778,323.306 c 0,-3.798 0.882,-6.689 2.653,-8.69 1.775,-1.998 4.306,-3.002 7.594,-3.002 2.986,0 5.314,1.036 6.986,3.114 1.673,2.077 2.506,4.933 2.506,8.578 v 76.166 h 29.087 c 3.693,0 6.595,0.822 8.696,2.473 2.101,1.643 3.146,3.882 3.146,6.714 0,2.933 -1.021,5.233 -3.071,6.878 -2.05,1.648 -4.922,2.463 -8.621,2.463 H 489.29 c -5.159,0 -8.707,-0.909 -10.629,-2.732 -1.921,-1.824 -2.883,-5.116 -2.883,-9.875 v -82.087 z"
   id="path9"
   inkscape:connector-curvature="0"
   style="fill:#762282" />
	<path
   d="m 573.859,330.143 c -3.596,0 -6.29,0.51 -8.089,1.521 -1.796,1.009 -2.695,2.524 -2.695,4.555 0,3.59 6.529,6.577 19.593,8.958 1.564,0.306 2.784,0.53 3.643,0.687 0.606,0.099 1.492,0.253 2.656,0.457 12.509,2.271 21.571,5.742 27.188,10.397 3.292,2.836 5.771,6.229 7.442,10.175 1.673,3.949 2.507,8.377 2.507,13.29 0,11.241 -3.91,20.348 -11.73,27.338 C 606.548,414.503 596.312,418 583.652,418 h -24.908 c -6.223,0 -10.702,-0.834 -13.439,-2.507 -2.737,-1.668 -4.103,-4.352 -4.103,-8.052 0,-3.236 1.229,-5.519 3.684,-6.862 2.454,-1.343 6.873,-2.021 13.251,-2.021 h 25.822 c 6.78,0 12.113,-1.436 15.985,-4.325 3.871,-2.885 5.809,-6.836 5.809,-11.848 0,-1.211 -0.165,-2.413 -0.495,-3.604 -0.33,-1.188 -0.797,-2.37 -1.404,-3.533 -2.934,-5.163 -9.949,-8.834 -21.035,-11.01 -0.862,-0.151 -1.544,-0.278 -2.054,-0.376 -1.263,-0.256 -3.212,-0.586 -5.841,-0.99 -10.581,-1.72 -18.453,-4.227 -23.617,-7.52 -2.836,-1.824 -5.026,-4.277 -6.571,-7.363 -1.547,-3.091 -2.318,-6.556 -2.318,-10.406 0,-8.145 2.762,-14.384 8.282,-18.712 5.517,-4.33 13.487,-6.496 23.918,-6.496 h 28.177 c 4.706,0 8.235,0.786 10.591,2.354 2.354,1.568 3.533,3.896 3.533,6.986 0,2.682 -1.103,4.759 -3.302,6.223 -2.205,1.472 -5.306,2.206 -9.306,2.206 h -30.452 z"
   id="path11"
   inkscape:connector-curvature="0"
   style="fill:#762282" />
	<path
   d="m 659.246,330.143 c -3.599,0 -6.289,0.51 -8.089,1.521 -1.794,1.009 -2.695,2.524 -2.695,4.555 0,3.59 6.532,6.577 19.594,8.958 1.571,0.306 2.779,0.53 3.642,0.687 0.609,0.099 1.494,0.253 2.658,0.457 12.503,2.271 21.567,5.742 27.188,10.397 3.288,2.836 5.771,6.229 7.442,10.175 1.669,3.949 2.502,8.377 2.502,13.29 0,11.241 -3.909,20.348 -11.731,27.338 C 691.937,414.503 681.694,418 669.041,418 H 644.13 c -6.224,0 -10.704,-0.834 -13.438,-2.507 -2.736,-1.668 -4.103,-4.352 -4.103,-8.052 0,-3.236 1.229,-5.519 3.685,-6.862 2.455,-1.343 6.873,-2.021 13.251,-2.021 h 25.821 c 6.781,0 12.107,-1.436 15.98,-4.325 3.874,-2.885 5.81,-6.836 5.81,-11.848 0,-1.211 -0.164,-2.413 -0.491,-3.604 -0.334,-1.188 -0.8,-2.37 -1.409,-3.533 -2.935,-5.163 -9.944,-8.834 -21.033,-11.01 -0.858,-0.151 -1.54,-0.278 -2.049,-0.376 -1.263,-0.256 -3.213,-0.586 -5.848,-0.99 -10.581,-1.72 -18.453,-4.227 -23.616,-7.52 -2.837,-1.824 -5.027,-4.277 -6.572,-7.363 -1.539,-3.091 -2.313,-6.556 -2.313,-10.406 0,-8.145 2.757,-14.384 8.277,-18.712 5.518,-4.33 13.493,-6.496 23.924,-6.496 h 28.172 c 4.712,0 8.241,0.786 10.596,2.354 2.355,1.568 3.528,3.896 3.528,6.986 0,2.682 -1.103,4.759 -3.303,6.223 -2.199,1.472 -5.3,2.206 -9.304,2.206 h -30.449 z"
   id="path13"
   inkscape:connector-curvature="0"
   style="fill:#762282" />
	<path
   d="m 743.496,373.349 c -2.795,7.998 -4.801,16.454 -6.045,25.363 -1.238,8.908 -1.885,13.44 -1.932,13.592 -0.462,1.821 -1.584,3.357 -3.382,4.597 -1.8,1.238 -3.882,1.856 -6.267,1.856 -3.032,0 -5.306,-0.932 -6.794,-2.812 -1.499,-1.869 -2.241,-4.753 -2.241,-8.65 0,-7.396 1.319,-16.252 3.946,-26.579 2.639,-10.327 6.259,-20.605 10.859,-30.83 6.328,-14.124 11.901,-24.158 16.715,-30.103 4.807,-5.95 9.667,-8.929 14.576,-8.929 3.901,0 7.659,1.912 11.279,5.738 3.618,3.821 7.934,10.563 12.946,20.234 7.085,13.771 12.742,27.325 16.968,40.665 4.231,13.338 6.341,23.523 6.341,30.558 0,3.392 -0.855,6.026 -2.58,7.896 -1.72,1.88 -4.127,2.812 -7.209,2.812 -1.724,0 -3.245,-0.333 -4.56,-1.022 -1.319,-0.682 -2.432,-1.732 -3.345,-3.151 -0.556,-0.815 -1.405,-3.604 -2.544,-8.387 -1.135,-4.784 -2.614,-8.728 -4.438,-11.813 -4.154,-6.837 -9.644,-12.047 -16.479,-15.641 -6.832,-3.596 -14.733,-5.394 -23.688,-5.394 h -2.126 z m 4.786,-15.567 c 6.98,0 13.096,0.813 18.336,2.431 5.238,1.622 9.809,4.076 13.704,7.365 -2.482,-6.982 -5.215,-13.498 -8.202,-19.549 -2.987,-6.048 -6.275,-11.659 -9.87,-16.823 -3.039,4.401 -5.705,8.807 -8.015,13.21 -2.297,4.406 -4.286,8.861 -5.953,13.366 z"
   id="path15"
   inkscape:connector-curvature="0"
   style="fill:#762282" />
</g>
<g
   id="g17"
   transform="translate(-8.2480873,252.22171)">
	<g
   id="g19">
		<path
   d="m 195.665,384.996 c 1.043,1.807 73.01,-44.494 74.024,-42.737 0.786,1.36 -52.785,42.412 -52.071,43.647 0.91,1.576 44.81,-27.395 45.47,-26.252 0.488,0.846 -30.704,28.634 -30.085,29.705 0.705,1.222 38.264,-23.623 38.927,-22.475 0.722,1.251 -37.021,32.622 -36.292,33.885 0.556,0.962 33.59,-20.601 34.113,-19.695 0.4,0.693 -26.195,26.813 -25.739,27.604 0.417,0.722 26.526,-16.476 27.029,-15.604 0.185,0.319 -6.218,16.467 -5.999,16.846 0.33,0.571 19.852,-12.202 20.173,-11.646 0.333,0.577 -18.938,21.956 -18.528,22.666 0.163,0.282 12.889,-7.888 13.082,-7.553 0.183,0.315 -2.857,12.919 -2.696,13.198 0.08,0.139 9.4,-5.632 9.488,-5.479"
   id="path21"
   inkscape:connector-curvature="0"
   style="fill:none;stroke:#fcbe0e;stroke-width:6.42420006;stroke-linecap:round;stroke-linejoin:round" />
		<path
   d="m 20.625,268.756 c 0.037,0.063 3.084,-1.905 3.138,-1.812 0.182,0.315 -1.203,13.4 -1.05,13.666 0.323,0.559 30.35,-18.383 30.723,-17.738 0.241,0.418 -11.597,18.314 -11.362,18.721 0.744,1.289 39.823,-24.334 40.404,-23.327 0.582,1.008 -31.739,29.589 -31.229,30.472 0.846,1.466 59.02,-36.586 60.107,-34.703 0.691,1.197 -52.564,41.9 -51.719,43.364 1.226,2.124 95.137,-57.483 96.244,-55.566 1.485,2.572 -81.594,56.369 -80.358,58.51 2.317,4.014 142.325,-87.055 144.439,-83.393 2.136,3.7 -140.67,87.101 -138.206,91.37 2.382,4.126 131.665,-81.597 134.081,-77.412 2.289,3.964 -132.168,84.828 -129.993,88.595 2.348,4.066 140.267,-85.727 142.321,-82.169 2.443,4.231 -140.653,89.101 -138.697,92.488 1.783,3.089 143.751,-88.627 146.19,-84.403 1.698,2.941 -130.54,85.277 -128.944,88.041 2.602,4.508 141.477,-86.783 143.686,-82.957 1.752,3.036 -144.205,89.507 -142.025,93.282 2.511,4.35 158.127,-95.596 159.989,-92.37 2.545,4.408 -155.261,98.02 -153.392,101.258 2.366,4.098 172.211,-104.874 174.57,-100.788 2.635,4.564 -172.879,107.076 -170.789,110.697 2.853,4.941 173.787,-106.358 176.395,-101.841 2.892,5.008 -181.759,112.031 -179.308,116.275 2.781,4.817 196.47,-121.227 199.845,-115.381 3.654,6.329 -212.58,128.277 -209.721,133.229 3.294,5.705 224.119,-136.873 227.357,-131.265 3.008,5.21 -221.64,133.241 -218.842,138.087 2.08,3.603 167.896,-103.214 170.615,-98.504 2.861,4.955 -181.878,111.043 -178.927,116.156 2.507,4.342 147.333,-90.67 149.76,-86.465 1.847,3.2 -137.903,85.595 -135.61,89.566 2.126,3.684 140.884,-86.651 143.184,-82.667 2.272,3.936 -154.641,94.71 -152.081,99.145 0.589,1.02 40.348,-25.11 41.134,-23.749"
   id="path23"
   inkscape:connector-curvature="0"
   style="fill:none;stroke:#fcbe0e;stroke-width:6.42420006;stroke-linecap:round;stroke-linejoin:round" />
		<path
   d="m 173.32,137.635 c 0.014,0.024 13.801,-8 13.815,-7.976 0.22,0.38 -11.328,18.476 -11.069,18.924 0.127,0.22 9.446,-5.804 9.598,-5.541 0.28,0.485 -16.454,20.756 -16.137,21.305 0.275,0.477 11.985,-7.541 12.254,-7.075 0.22,0.382 -8.025,16.011 -7.776,16.442 0.381,0.66 13.028,-8.215 13.328,-7.695 0.423,0.732 -18.217,21.459 -17.85,22.096 0.402,0.697 27.013,-16.538 27.421,-15.832 0.583,1.01 -27.968,28.298 -27.462,29.176 0.606,1.05 33.816,-20.716 34.333,-19.822 0.754,1.306 -40.281,33.139 -39.717,34.115 0.697,1.208 42.607,-26.017 43.221,-24.953 0.735,1.273 -54.755,42.866 -54.01,44.155 0.77,1.333 60.656,-36.78 61.418,-35.46"
   id="path25"
   inkscape:connector-curvature="0"
   style="fill:none;stroke:#fcbe0e;stroke-width:6.42420006;stroke-linecap:round;stroke-linejoin:round" />
		<path
   d="m 181.776,136.209 c 0.025,0.044 1.772,-1.079 1.797,-1.037 0.127,0.221 3.575,10.276 3.726,10.538 0.021,0.037 7.343,-4.307 7.373,-4.256 0.332,0.575 -14.413,20.517 -14.126,21.012 0.023,0.04 8.549,-4.994 8.575,-4.95 0.159,0.276 -0.503,11.83 -0.338,12.117 0.027,0.048 8.099,-4.728 8.122,-4.689 0.23,0.399 -8.563,17.39 -8.35,17.758 0.028,0.049 9.813,-5.724 9.838,-5.68 0.192,0.333 -6.128,15.33 -5.934,15.667 0.029,0.05 6.753,-3.953 6.777,-3.913 0.135,0.234 5.931,9.422 6.06,9.646 0.03,0.052 1.773,-1.082 1.798,-1.038 0.129,0.224 2.207,11.758 2.346,12 0.031,0.053 1.776,-1.077 1.798,-1.038 0.158,0.273 1.826,10.733 1.945,10.939 0.029,0.05 1.772,-1.083 1.798,-1.038 0.19,0.33 -2.507,14.416 -2.294,14.786 0.021,0.036 6.619,-3.893 6.649,-3.839 0.155,0.269 2.403,11.551 2.555,11.813 0.029,0.05 1.948,-1.179 1.971,-1.138 0.149,0.258 8.012,7.259 8.179,7.548 0.032,0.056 -0.016,-0.075 0.021,-0.012 0.182,0.314 16.863,3.336 17.073,3.698 0.043,0.075 11.211,-6.576 11.256,-6.499 0.215,0.373 15.741,2.566 15.924,2.884 0.033,0.057 0.551,-0.393 0.583,-0.337 0.136,0.236 8.783,6.705 8.912,6.928 0.04,0.068 2.637,-1.596 2.668,-1.541 0.166,0.287 11.8,4.128 11.962,4.409 0.037,0.064 2.624,-1.614 2.667,-1.54 0.109,0.189 5.242,8.882 5.367,9.099 0.033,0.057 18.265,-10.652 18.312,-10.572 0.114,0.198 5.005,8.993 5.112,9.178 0.041,0.072 2.628,-1.6 2.664,-1.538 0.702,1.215 -42.471,34.557 -41.847,35.637 0.985,1.706 54.865,-33.622 55.708,-32.163 1.565,2.712 -89.448,60.576 -88.327,62.516 0.022,0.039 1.826,-1.104 1.848,-1.066 0.149,0.258 -2.307,12.914 -2.165,13.161 0.031,0.053 7.892,-4.623 7.921,-4.573 0.155,0.268 5.669,8.633 5.814,8.885 0.031,0.054 0.555,-0.39 0.585,-0.338 0.226,0.391 -7.367,15.046 -7.156,15.412 0.024,0.042 1.823,-1.103 1.845,-1.064 0.152,0.264 -1.208,12.831 -1.053,13.1 0.027,0.047 0.407,-0.306 0.438,-0.253 0.178,0.309 -3.5,13.013 -3.301,13.356 0.029,0.051 14.405,-8.377 14.431,-8.332 0.21,0.365 -9.792,16.435 -9.597,16.771 0.029,0.051 11.271,-6.571 11.299,-6.523 0.154,0.267 -1.346,13.058 -1.18,13.345 0.027,0.047 5.481,-3.22 5.505,-3.179 0.34,0.59 -13.219,18.715 -12.942,19.195 0.024,0.041 4.277,-2.523 4.3,-2.482 0.126,0.219 3.936,9.256 4.041,9.438 0.032,0.055 1.816,-1.101 1.838,-1.062"
   id="path27"
   inkscape:connector-curvature="0"
   style="fill:none;stroke:#fcbe0e;stroke-width:6.42420006;stroke-linecap:round;stroke-linejoin:round" />
		<path
   d="m 196.121,385.926 c 0.03,0.053 12.125,-7.068 12.155,-7.018 0.139,0.241 3.986,9.514 4.137,9.774 0.027,0.048 1.995,-1.212 2.021,-1.167 0.146,0.252 8.455,7.472 8.598,7.72 0.027,0.048 1.991,-1.207 2.016,-1.164 0.118,0.205 4.648,8.506 4.754,8.688 0.027,0.047 5.034,-2.975 5.064,-2.924 0.123,0.214 0.621,10.586 0.742,10.797 0.03,0.052 0.363,-0.28 0.394,-0.228 0.132,0.229 7.888,8.566 8.029,8.811 0.032,0.056 5.093,-2.995 5.117,-2.954 0.206,0.355 14.603,3.889 14.791,4.213 0.03,0.054 1.966,-1.208 1.998,-1.153 0.151,0.261 11.328,5.845 11.501,6.145 0.028,0.05 1.758,-1.068 1.781,-1.028"
   id="path29"
   inkscape:connector-curvature="0"
   style="fill:none;stroke:#fcbe0e;stroke-width:6.42420006;stroke-linecap:round;stroke-linejoin:round" />
		<path
   d="m 191.605,386.208 c 0.216,0.374 5.625,-3.729 5.833,-3.368 1.399,2.424 -77.805,52.859 -76.405,55.284 0.223,0.386 10.674,-6.688 10.901,-6.294"
   id="path31"
   inkscape:connector-curvature="0"
   style="fill:none;stroke:#fcbe0e;stroke-width:6.42420006;stroke-linecap:round;stroke-linejoin:round" />
		<path
   d="m 11.473,271.946 c 0.052,0.091 14.497,-8.487 14.547,-8.399 0.145,0.251 2.031,12.108 2.163,12.336 0.032,0.056 1.872,-1.134 1.895,-1.094 0.126,0.218 7.106,7.864 7.266,8.141 0.029,0.05 1.868,-1.142 1.896,-1.094 0.167,0.288 7.539,8.188 7.707,8.479 0.028,0.049 1.869,-1.14 1.896,-1.094 0.12,0.208 7.432,8.138 7.568,8.374 0.027,0.047 1.864,-1.151 1.896,-1.095 0.174,0.302 16.209,3.549 16.415,3.906 0.03,0.052 1.253,-0.791 1.283,-0.74 0.142,0.245 -0.941,12.109 -0.767,12.411 0.023,0.041 1.87,-1.145 1.898,-1.096 0.142,0.245 7.267,7.158 7.392,7.375 0.027,0.047 5.769,-3.4 5.799,-3.349 0.171,0.296 -4.266,14.986 -4.084,15.301 0.023,0.039 17.514,-10.178 17.542,-10.128 0.134,0.231 -1.644,12.854 -1.461,13.168 0.022,0.039 2.643,-1.586 2.669,-1.54 0.119,0.206 5.814,7.494 5.951,7.731 0.024,0.041 1.875,-1.142 1.9,-1.098 0.202,0.35 -5.081,15.099 -4.896,15.417 0.034,0.059 7.49,-4.403 7.524,-4.344 0.162,0.28 -2.537,14.054 -2.326,14.419 0.032,0.056 2.045,-1.236 2.069,-1.195 0.199,0.346 -2.503,13.054 -2.349,13.322 0.03,0.052 2.035,-1.249 2.066,-1.193 0.192,0.333 -2.507,13.211 -2.35,13.483 0.025,0.043 2.032,-1.247 2.064,-1.191 0.152,0.264 0.126,12.502 0.253,12.723 0.033,0.057 8.35,-4.885 8.378,-4.837 0.363,0.629 -18.674,21.435 -18.328,22.035 0.029,0.051 16.122,-9.373 16.15,-9.324 0.198,0.344 -9.654,17.018 -9.369,17.513 0.03,0.052 2.021,-1.245 2.055,-1.187 0.123,0.212 2,11.695 2.164,11.979 0.034,0.059 6.54,-3.854 6.574,-3.795"
   id="path33"
   inkscape:connector-curvature="0"
   style="fill:none;stroke:#fcbe0e;stroke-width:6.42420006;stroke-linecap:round;stroke-linejoin:round" />
		<path
   d="m 26.147,267.541 c 0.058,0.101 4.913,-3.034 4.998,-2.886 0.256,0.444 18.971,1.609 19.187,1.982 0.064,0.111 10.43,-6.193 10.504,-6.064 0.296,0.513 26.428,-3.764 26.717,-3.263 0.082,0.142 4.975,-3.02 5.039,-2.909 0.338,0.585 24.957,-2.651 25.253,-2.138 0.064,0.111 4.977,-3.063 5.059,-2.921 0.256,0.444 24.561,-3.024 24.874,-2.482 0.09,0.156 13.032,-7.712 13.113,-7.571"
   id="path35"
   inkscape:connector-curvature="0"
   style="fill:none;stroke:#fcbe0e;stroke-width:6.42420006;stroke-linecap:round;stroke-linejoin:round" />
		<path
   d="m 173.128,134.181 c 0.014,0.025 13.807,-8.003 13.821,-7.979 0.219,0.38 -11.334,18.479 -11.076,18.928 0.036,0.061 3.232,-1.963 3.274,-1.89 0.176,0.305 -6.427,15.239 -6.228,15.584 0.042,0.073 2.408,-1.485 2.449,-1.414 0.201,0.348 -6.256,15.041 -6.029,15.435 0.04,0.069 2.419,-1.47 2.451,-1.415 0.243,0.421 -6.194,14.876 -5.982,15.244 0.032,0.056 2.419,-1.472 2.452,-1.416 0.265,0.459 -6.672,16.64 -6.441,17.039 0.039,0.067 2.421,-1.473 2.454,-1.417 0.165,0.285 -0.531,11.208 -0.408,11.42 0.038,0.065 0.146,-0.161 0.18,-0.104 0.234,0.405 -11.207,18.896 -10.97,19.306 0.036,0.061 10.436,-6.106 10.471,-6.045"
   id="path37"
   inkscape:connector-curvature="0"
   style="fill:none;stroke:#fcbe0e;stroke-width:6.42420006;stroke-linecap:round;stroke-linejoin:round" />
	</g>
</g>
</svg>