<?xml version="1.0" encoding="UTF-8" standalone="no"?>
<!-- Generator: Adobe Illustrator 16.0.3, SVG Export Plug-In . SVG Version: 6.00 Build 0)  -->

<svg
   xmlns:dc="http://purl.org/dc/elements/1.1/"
   xmlns:cc="http://creativecommons.org/ns#"
   xmlns:rdf="http://www.w3.org/1999/02/22-rdf-syntax-ns#"
   xmlns:svg="http://www.w3.org/2000/svg"
   xmlns="http://www.w3.org/2000/svg"
   xmlns:sodipodi="http://sodipodi.sourceforge.net/DTD/sodipodi-0.dtd"
   xmlns:inkscape="http://www.inkscape.org/namespaces/inkscape"
   version="1.1"
   id="Ebene_1"
   x="0px"
   y="0px"
   width="300"
   height="300"
   viewBox="0 0 299.99999 299.99998"
   enable-background="new 0 0 841.89 595.28"
   xml:space="preserve"
   inkscape:version="0.48.4 r9939"
   sodipodi:docname="HeaderIcon.svg"><metadata
   id="metadata95"><rdf:RDF><cc:Work
       rdf:about=""><dc:format>image/svg+xml</dc:format><dc:type
         rdf:resource="http://purl.org/dc/dcmitype/StillImage" /><dc:title></dc:title></cc:Work></rdf:RDF></metadata><defs
   id="defs93" /><sodipodi:namedview
   pagecolor="#ffffff"
   bordercolor="#666666"
   borderopacity="1"
   objecttolerance="10"
   gridtolerance="10"
   guidetolerance="10"
   inkscape:pageopacity="0"
   inkscape:pageshadow="2"
   inkscape:window-width="1079"
   inkscape:window-height="801"
   id="namedview91"
   showgrid="false"
   fit-margin-top="0"
   fit-margin-left="0"
   fit-margin-right="0"
   fit-margin-bottom="10"
   inkscape:showpageshadow="false"
   showborder="true"
   inkscape:zoom="0.39645207"
   inkscape:cx="283.945"
   inkscape:cy="65.016982"
   inkscape:window-x="0"
   inkscape:window-y="0"
   inkscape:window-maximized="0"
   inkscape:current-layer="Ebene_1" />
<path
   d="m 265.37661,243.28566 h -66.99 c 4.117,3.449 8.88,6.036 13.924,7.833 h 39.105 c 5.061,-1.797 9.836,-4.384 13.961,-7.833"
   id="path3"
   inkscape:connector-curvature="0"
   style="fill:#003366" />
<polygon
   points="198.301,341.227 227.335,341.227 227.381,341.082 227.301,341.082 229.705,333.394 201.191,333.394 "
   id="polygon5"
   style="fill:#003366"
   transform="translate(-119.34339,-101.53734)" />
<polygon
   points="223.66,352.656 226.18,344.823 196.971,344.823 194.079,352.656 "
   id="polygon7"
   style="fill:#003366"
   transform="translate(-119.34339,-101.53734)" />
<rect
   x="17.65661"
   y="243.28665"
   width="27.723"
   height="7.8330002"
   id="rect9"
   style="fill:#003366" />
<rect
   x="17.65661"
   y="231.85565"
   width="27.723"
   height="7.8330002"
   id="rect11"
   style="fill:#003366" />
<rect
   x="17.65661"
   y="220.42365"
   width="27.723"
   height="7.8330002"
   id="rect13"
   style="fill:#003366" />
<rect
   x="17.65661"
   y="208.99767"
   width="27.723"
   height="7.8309999"
   id="rect15"
   style="fill:#003366" />
<rect
   x="17.65661"
   y="174.70966"
   width="27.723"
   height="7.8319998"
   id="rect17"
   style="fill:#003366" />
<rect
   x="17.65661"
   y="163.27866"
   width="27.723"
   height="7.8330002"
   id="rect19"
   style="fill:#003366" />
<rect
   x="17.65661"
   y="140.42064"
   width="84.727997"
   height="7.8330002"
   id="rect21"
   style="fill:#003366" />
<rect
   x="17.65661"
   y="151.84865"
   width="84.727997"
   height="7.8319998"
   id="rect23"
   style="fill:#003366" />
<polygon
   points="219.408,284.079 244.954,284.079 247.302,276.247 222.3,276.247 "
   id="polygon25"
   style="fill:#003366"
   transform="translate(-119.34339,-101.53734)" />
<polygon
   points="263.625,241.958 234.967,241.958 232.073,249.791 266.584,249.791 "
   id="polygon27"
   style="fill:#003366"
   transform="translate(-119.34339,-101.53734)" />
<polygon
   points="267.942,253.386 230.744,253.386 227.853,261.218 270.902,261.218 "
   id="polygon29"
   style="fill:#003366"
   transform="translate(-119.34339,-101.53734)" />
<polygon
   points="249.452,269.059 249.762,269.059 250.836,272.648 275.221,272.648 272.261,264.815 226.523,264.815 223.63,272.648 248.379,272.648 "
   id="polygon31"
   style="fill:#003366"
   transform="translate(-119.34339,-101.53734)" />
<polygon
   points="276.579,276.247 251.916,276.247 254.259,284.078 279.538,284.078 "
   id="polygon33"
   style="fill:#003366"
   transform="translate(-119.34339,-101.53734)" />
<polygon
   points="280.898,287.675 255.336,287.675 257.679,295.507 283.856,295.507 "
   id="polygon35"
   style="fill:#003366"
   transform="translate(-119.34339,-101.53734)" />
<polygon
   points="285.214,299.104 258.755,299.104 261.101,306.937 288.174,306.937 "
   id="polygon37"
   style="fill:#003366"
   transform="translate(-119.34339,-101.53734)" />
<polygon
   points="289.533,310.536 209.637,310.536 206.742,318.367 292.493,318.367 "
   id="polygon39"
   style="fill:#003366"
   transform="translate(-119.34339,-101.53734)" />
<polygon
   points="293.851,321.961 205.414,321.961 202.521,329.794 296.811,329.794 "
   id="polygon41"
   style="fill:#003366"
   transform="translate(-119.34339,-101.53734)" />
<polygon
   points="298.17,333.394 269.562,333.394 272.118,341.227 301.132,341.227 "
   id="polygon43"
   style="fill:#003366"
   transform="translate(-119.34339,-101.53734)" />
<polygon
   points="273.191,344.823 275.709,352.656 305.446,352.656 302.488,344.823 "
   id="polygon45"
   style="fill:#003366"
   transform="translate(-119.34339,-101.53734)" />
<rect
   x="184.93161"
   y="140.42064"
   width="27.721001"
   height="7.8330002"
   id="rect47"
   style="fill:#003366" />
<rect
   x="184.93161"
   y="151.84865"
   width="27.721001"
   height="7.8319998"
   id="rect49"
   style="fill:#003366" />
<rect
   x="184.93161"
   y="163.27866"
   width="27.721001"
   height="7.8330002"
   id="rect51"
   style="fill:#003366" />
<rect
   x="184.93161"
   y="174.70966"
   width="27.721001"
   height="7.8319998"
   id="rect53"
   style="fill:#003366" />
<rect
   x="184.93161"
   y="186.13763"
   width="27.721001"
   height="7.8319998"
   id="rect55"
   style="fill:#003366" />
<rect
   x="184.93161"
   y="197.56766"
   width="27.721001"
   height="7.8309999"
   id="rect57"
   style="fill:#003366" />
<path
   d="m 185.15361,216.82966 h 28.02 c -0.351,-2.027 -0.52,-4.194 -0.52,-6.475 v -1.356 h -27.721 v 3.689 c -0.001,1.439 0.107,2.791 0.221,4.142"
   id="path59"
   inkscape:connector-curvature="0"
   style="fill:#003366" />
<path
   d="m 187.63161,228.25666 h 31.618 c -2.462,-1.971 -4.134,-4.647 -5.182,-7.833 h -28.46 c 0.455,2.794 1.112,5.425 2.024,7.833"
   id="path61"
   inkscape:connector-curvature="0"
   style="fill:#003366" />
<path
   d="m 274.57461,231.85666 h -85.372 c 1.488,2.927 3.325,5.522 5.412,7.833 h 74.545 c 2.088,-2.311 3.93,-4.907 5.415,-7.833"
   id="path63"
   inkscape:connector-curvature="0"
   style="fill:#003366" />
<path
   d="m 278.17461,220.42366 h -28.466 c -1.05,3.186 -2.736,5.861 -5.211,7.833 h 31.648 c 0.914,-2.408 1.569,-5.039 2.029,-7.833"
   id="path65"
   inkscape:connector-curvature="0"
   style="fill:#003366" />
<rect
   x="251.12561"
   y="140.42064"
   width="27.723"
   height="7.8330002"
   id="rect67"
   style="fill:#003366" />
<rect
   x="251.12561"
   y="151.84865"
   width="27.723"
   height="7.8319998"
   id="rect69"
   style="fill:#003366" />
<rect
   x="251.12561"
   y="163.27866"
   width="27.723"
   height="7.8330002"
   id="rect71"
   style="fill:#003366" />
<rect
   x="251.12561"
   y="174.70966"
   width="27.723"
   height="7.8319998"
   id="rect73"
   style="fill:#003366" />
<rect
   x="251.12561"
   y="186.13763"
   width="27.723"
   height="7.8319998"
   id="rect75"
   style="fill:#003366" />
<rect
   x="251.12561"
   y="197.56766"
   width="27.723"
   height="7.8309999"
   id="rect77"
   style="fill:#003366" />
<path
   d="m 278.84861,212.68966 v -3.691 h -27.723 v 1.358 c 0,2.278 -0.168,4.445 -0.52,6.474 h 28.019 c 0.113,-1.351 0.224,-2.704 0.224,-4.141"
   id="path79"
   inkscape:connector-curvature="0"
   style="fill:#003366" />
<polygon
   points="238.115,306.969 240.459,299.14 137,299.14 137,306.969 "
   id="polygon81"
   style="fill:#003366"
   transform="translate(-119.34339,-101.53734)" />
<polygon
   points="241.536,295.475 243.879,287.644 137,287.644 137,295.475 "
   id="polygon83"
   style="fill:#003366"
   transform="translate(-119.34339,-101.53734)" />



</svg>