<?xml version="1.0" encoding="utf-8"?>
<!-- Generator: Adobe Illustrator 16.0.0, SVG Export Plug-In . SVG Version: 6.00 Build 0)  -->
<!DOCTYPE svg PUBLIC "-//W3C//DTD SVG 1.1//EN" "http://www.w3.org/Graphics/SVG/1.1/DTD/svg11.dtd">
<svg version="1.1" id="Ebene_1" xmlns="http://www.w3.org/2000/svg" xmlns:xlink="http://www.w3.org/1999/xlink" x="0px" y="0px"
	 width="841.89px" height="595.28px" viewBox="0 0 841.89 595.28" enable-background="new 0 0 841.89 595.28" xml:space="preserve">
<g>
	<path fill="#F59C00" d="M773.26,408.917H41.347v-12.138h726.035V216.638l-186.516-98.715l-175.11,98.611v33.314h-11.748V212.93
		c0-2.222,1.175-4.264,3.066-5.329l180.898-101.868c1.704-0.965,3.758-0.992,5.486-0.072L775.936,207.53
		c1.961,1.037,3.195,3.124,3.195,5.4v189.918C779.131,406.201,776.504,408.917,773.26,408.917z"/>
</g>
<g>
	<path fill="#0F406E" d="M72.567,371.688h48.934v10.488H60.507V260.009h12.06V371.688z"/>
	<path fill="#0F406E" d="M156.104,336.556l0.177-9.087h41.941c-0.232-10.835-2.271-19.311-6.114-25.43
		c-3.847-6.114-9.265-9.175-16.257-9.175c-8.385,0-15.146,3.788-20.272,11.363c-3.961,6.058-6.351,13.811-7.166,23.242v9.442
		c0.583,11.536,3.205,20.505,7.867,26.914c5.358,7.338,12.933,11.012,22.722,11.012c2.444,0,5.007-0.414,7.688-1.225
		c2.677-0.819,5.156-1.777,7.428-2.884c2.271-1.105,4.251-2.271,5.94-3.496s2.825-2.242,3.408-3.062l5.417,7.517
		c-1.166,1.165-2.969,2.479-5.417,3.931c-2.444,1.462-5.186,2.824-8.212,4.108c-3.032,1.283-6.149,2.36-9.353,3.229
		c-3.206,0.879-6.089,1.313-8.648,1.313c-13.402,0-23.506-4.336-30.326-13.018c-6.815-8.682-10.223-21.175-10.223-37.491
		c0-7.22,0.934-13.896,2.795-20.011c1.862-6.115,4.43-11.415,7.688-15.903c3.264-4.484,7.166-8.01,11.714-10.573
		c4.542-2.563,9.491-3.847,14.854-3.847c12.233,0,21.521,4.316,27.877,12.933c6.345,8.628,9.229,20.69,8.647,36.176l-0.173,4.375
		L156.104,336.556z"/>
	<path fill="#0F406E" d="M236.495,382.176v-96.65h9.96v18.874c2.564-7.338,6-12.671,10.312-15.99
		c4.311-3.318,8.914-4.982,13.808-4.982l12.583,2.973l-5.59,10.835l-8.039-2.271c-3.497,0-6.617,0.962-9.354,2.884
		c-2.736,1.921-5.042,4.603-6.904,8.04c-1.862,3.437-3.294,7.577-4.281,12.407c-0.988,4.839-1.487,10.223-1.487,16.168v47.714
		H236.495z"/>
	<path fill="#0F406E" d="M358.481,382.176v-61.699c0-8.386-1.897-15.113-5.68-20.181c-3.787-5.072-8.889-7.604-15.294-7.604
		c-4.192,0-7.95,0.849-11.269,2.533c-3.324,1.694-6.148,4.049-8.479,7.083c-2.331,3.026-4.109,6.726-5.329,11.099
		c-1.225,4.364-1.837,9.175-1.837,14.42v54.351h-11.012v-96.65h9.965v16.781c2.795-6.643,6.667-11.452,11.62-14.421
		c4.953-2.973,10.983-4.459,18.09-4.459c9.901,0,17.417,3.264,22.543,9.788c5.126,6.527,7.694,15.792,7.694,27.785v61.176H358.481z"
		/>
	<path fill="#0F406E" d="M406.018,260.009v54.008h61.687v-54.008h12.059v122.167h-12.059v-57.68h-61.687v57.68h-12.061V260.009
		H406.018z"/>
	<path fill="#0F406E" d="M528.437,339.439c-5.996,3.911-8.997,9.354-8.997,16.346c0,5.937,1.48,10.598,4.453,13.977
		c2.973,3.387,7.783,5.075,14.42,5.075c8.622,0,15.121-2.883,19.487-8.651c4.375-5.769,6.559-13.313,6.559-22.637v-8.386v-11.19
		v-8.563c0-7.805-1.778-13.514-5.334-17.124c-3.557-3.609-8.652-5.422-15.289-5.422c-4.436,0-8.979,0.677-13.64,2.009
		c-4.662,1.344-8.73,3.181-12.228,5.507l-3.496-7.339c0.701-0.464,2.064-1.249,4.108-2.36c2.035-1.106,4.425-2.182,7.16-3.234
		c2.736-1.047,5.739-1.98,9.008-2.795c3.26-0.814,6.46-1.225,9.609-1.225c10.253,0,17.996,2.682,23.241,8.039
		c5.244,5.364,7.871,13.285,7.871,23.767v52.435c0,1.985,0,3.842,0,5.591c0,1.748,0.05,3.328,0.168,4.721
		c0.119,1.283,0.059,2.617-0.168,4.02l-9.966,0.178v-14.163c-3.96,6.291-8.503,10.608-13.629,12.938
		c-5.137,2.331-10.312,3.496-15.557,3.496c-9.086,0-16.168-2.677-21.234-8.039c-5.066-5.363-7.605-12.237-7.605-20.623
		c0-10.252,4.021-18.143,12.061-23.684c8.038-5.531,19.753-8.297,35.13-8.297h1.225c0.109,1.975,0.169,3.605,0.169,4.889
		c0,1.166,0,2.213,0,3.151c0,0.929-0.06,1.393-0.169,1.393C543.558,333.475,534.441,335.538,528.437,339.439z"/>
	<path fill="#0F406E" d="M669.741,382.176h-9.787l-0.178-16.435c-2.439,5.946-6.114,10.519-11.003,13.719
		c-4.898,3.21-10.835,4.81-17.827,4.81c-10.607,0-18.44-3.26-23.507-9.787c-5.066-6.52-7.604-16.139-7.604-28.84v-60.117h11.012
		v60.117c0,9.204,1.838,16.375,5.502,21.501c3.674,5.126,8.997,7.693,15.99,7.693c3.96,0,7.575-0.819,10.834-2.449
		c3.27-1.629,6.065-3.901,8.396-6.814c2.331-2.913,4.108-6.439,5.324-10.578c1.224-4.128,1.836-8.651,1.836-13.541v-55.929h11.013
		V382.176z"/>
	<path fill="#0F406E" d="M748.391,367.934c-1.521,3.438-3.676,6.37-6.47,8.82c-2.795,2.449-6.145,4.346-10.046,5.68
		c-3.91,1.342-8.306,2.014-13.194,2.014c-4.662,0-9.264-0.503-13.808-1.491c-4.543-0.987-7.932-2.123-10.144-3.407l1.225-10.835
		c0.465,0.464,1.462,1.048,2.972,1.749c1.513,0.7,3.319,1.372,5.423,2.014c2.095,0.643,4.396,1.195,6.904,1.659
		c2.499,0.465,4.979,0.701,7.428,0.701c2.795,0,5.383-0.443,7.773-1.313c2.39-0.879,4.513-2.063,6.38-3.585
		c1.866-1.511,3.318-3.318,4.365-5.412c1.058-2.104,1.58-4.375,1.58-6.825c0-2.795-0.504-5.264-1.491-7.427
		c-0.987-2.153-2.36-4.04-4.109-5.679c-1.747-1.63-3.781-3.111-6.113-4.455c-2.331-1.333-4.78-2.646-7.337-3.931
		c-2.569-1.284-5.246-2.677-8.04-4.197c-2.796-1.511-5.363-3.319-7.694-5.412c-2.331-2.104-4.258-4.573-5.768-7.428
		c-1.513-2.854-2.272-6.212-2.272-10.053c0-4.078,0.731-7.718,2.184-10.923c1.461-3.205,3.437-5.881,5.945-8.04
		c2.509-2.153,5.53-3.817,9.087-4.982c3.556-1.161,7.426-1.749,11.624-1.749c1.867,0,3.901,0.148,6.113,0.439
		c2.214,0.292,4.376,0.672,6.47,1.136c2.095,0.465,3.99,0.963,5.68,1.487c1.688,0.523,3.002,1.022,3.93,1.487l-1.225,9.259
		c-2.557-1.161-5.738-2.183-9.521-3.057c-3.783-0.874-7.368-1.313-10.745-1.313c-6.293,0-10.953,1.462-13.985,4.371
		c-3.033,2.913-4.543,6.814-4.543,11.709c0,3.85,1.896,7.257,5.679,10.229c3.782,2.963,8.474,5.738,14.074,8.296
		c7.445,3.378,13.303,7.318,17.561,11.803c4.246,4.484,6.381,10.223,6.381,17.216C750.662,360.675,749.9,364.497,748.391,367.934z"
		/>
</g>
<g>
	<path fill="#0F406E" d="M90.962,424.853h5.422v55.734h-7.418l-28.306-48.555v48.555h-5.422v-55.734h6.938l28.786,49.354V424.853z"
		/>
	<path fill="#0F406E" d="M105.155,418.957h5.102v6.775h-5.102V418.957z M105.155,480.587v-44.09h4.943v44.09H105.155z"/>
	<path fill="#0F406E" d="M128.676,459.777l0.079-4.148h19.137c-0.104-4.938-1.033-8.811-2.791-11.596
		c-1.753-2.795-4.222-4.187-7.413-4.187c-3.827,0-6.914,1.728-9.25,5.184c-1.807,2.766-2.898,6.292-3.269,10.599v4.306
		c0.266,5.265,1.462,9.363,3.585,12.286c2.444,3.349,5.902,5.018,10.366,5.018c1.116,0,2.286-0.187,3.511-0.553
		c1.22-0.374,2.351-0.811,3.388-1.323c1.037-0.503,1.94-1.027,2.71-1.591c0.771-0.563,1.289-1.026,1.555-1.393l2.47,3.427
		c-0.529,0.534-1.353,1.127-2.47,1.8c-1.116,0.661-2.365,1.282-3.748,1.864c-1.383,0.594-2.805,1.078-4.267,1.483
		c-1.461,0.395-2.775,0.592-3.945,0.592c-6.113,0-10.726-1.975-13.833-5.936c-3.111-3.961-4.667-9.659-4.667-17.107
		c0-3.298,0.425-6.341,1.274-9.125c0.85-2.795,2.02-5.215,3.511-7.259c1.486-2.046,3.27-3.654,5.343-4.821
		c2.069-1.174,4.331-1.757,6.776-1.757c5.58,0,9.816,1.965,12.716,5.896c2.898,3.941,4.213,9.441,3.951,16.515l-0.084,1.984
		L128.676,459.777z"/>
	<path fill="#0F406E" d="M207.131,436.497v4.306l-24.4,35.478h24.479v4.307h-30.296v-4.307l24.479-35.478h-23.526v-4.306H207.131z"
		/>
	<path fill="#0F406E" d="M247.878,480.587h-4.464l-0.079-7.496c-1.121,2.715-2.795,4.8-5.027,6.262s-4.943,2.192-8.133,2.192
		c-4.835,0-8.411-1.481-10.721-4.464c-2.311-2.974-3.472-7.359-3.472-13.156v-27.428h5.028v27.428c0,4.198,0.834,7.467,2.509,9.808
		c1.674,2.342,4.108,3.506,7.299,3.506c1.802,0,3.451-0.365,4.943-1.116c1.487-0.74,2.76-1.777,3.828-3.11
		c1.062-1.323,1.872-2.934,2.429-4.819c0.558-1.888,0.84-3.951,0.84-6.183v-25.513h5.022V480.587z"/>
	<path fill="#0F406E" d="M284.668,461.09c-2.736,1.788-4.104,4.268-4.104,7.457c0,2.716,0.677,4.841,2.035,6.38
		c1.354,1.542,3.546,2.312,6.578,2.312c3.931,0,6.894-1.313,8.889-3.941c1.995-2.636,2.988-6.072,2.988-10.33v-3.822v-5.106v-3.911
		c0-3.556-0.81-6.163-2.43-7.813c-1.62-1.648-3.945-2.468-6.978-2.468c-2.019,0-4.094,0.305-6.217,0.918
		c-2.128,0.611-3.985,1.442-5.58,2.509l-1.595-3.348c0.315-0.209,0.943-0.574,1.872-1.078c0.928-0.503,2.02-0.997,3.269-1.472
		c1.25-0.483,2.617-0.908,4.108-1.284c1.487-0.364,2.949-0.552,4.385-0.552c4.676,0,8.213,1.225,10.603,3.664
		c2.39,2.449,3.591,6.063,3.591,10.844v23.922c0,0.908,0,1.757,0,2.558c0,0.79,0.024,1.512,0.079,2.145
		c0.049,0.592,0.024,1.203-0.079,1.836l-4.548,0.079v-6.459c-1.808,2.874-3.882,4.839-6.217,5.905
		c-2.341,1.057-4.707,1.591-7.097,1.591c-4.148,0-7.378-1.225-9.689-3.664c-2.31-2.449-3.466-5.581-3.466-9.413
		c0-4.672,1.832-8.276,5.501-10.805c3.669-2.519,9.008-3.783,16.025-3.783h0.558c0.054,0.898,0.079,1.65,0.079,2.232
		c0,0.533,0,1.007,0,1.434c0,0.424-0.025,0.64-0.079,0.64C291.566,458.375,287.409,459.313,284.668,461.09z"/>
	<path fill="#0F406E" d="M320.273,420.784v59.803h-4.944v-59.803H320.273z"/>
	<path fill="#0F406E" d="M342.753,475.727c0.958,1.068,2.262,1.591,3.911,1.591c1.166,0,2.109-0.119,2.83-0.354
		c0.716-0.237,1.289-0.436,1.713-0.604l0.158,4.069c-0.316,0.158-1.062,0.386-2.232,0.683c-1.171,0.285-2.444,0.434-3.828,0.434
		c-3.402,0-5.752-0.918-7.056-2.746c-1.304-1.836-1.951-4.908-1.951-9.214v-28.782h-7.976v-4.306h7.976v-9.886l5.022-1.759v11.645
		h9.329v4.306h-9.329v30.381C341.32,473.15,341.799,474.66,342.753,475.727z"/>
	<path fill="#0F406E" d="M403.751,436.497v4.306l-24.4,35.478h24.479v4.307h-30.296v-4.307l24.479-35.478h-23.526v-4.306H403.751z"
		/>
	<path fill="#0F406E" d="M444.502,480.587h-4.465l-0.078-7.496c-1.126,2.715-2.796,4.8-5.027,6.262
		c-2.237,1.462-4.948,2.192-8.139,2.192c-4.834,0-8.41-1.481-10.721-4.464c-2.311-2.974-3.471-7.359-3.471-13.156v-27.428h5.027
		v27.428c0,4.198,0.834,7.467,2.508,9.808c1.674,2.342,4.109,3.506,7.299,3.506c1.802,0,3.451-0.365,4.943-1.116
		c1.485-0.74,2.761-1.777,3.827-3.11c1.066-1.323,1.876-2.934,2.43-4.819c0.562-1.888,0.84-3.951,0.84-6.183v-25.513h5.026V480.587z
		"/>
	<path fill="#0F406E" d="M502.944,480.587v-28.147c0-3.873-0.74-6.964-2.232-9.245c-1.49-2.281-3.585-3.427-6.301-3.427
		c-3.555,0-6.32,1.462-8.286,4.385c-1.976,2.924-2.954,6.804-2.954,11.645v24.79h-5.027v-28.147c0-3.873-0.75-6.964-2.271-9.245
		c-1.511-2.281-3.625-3.427-6.342-3.427c-3.555,0-6.32,1.462-8.286,4.385c-1.965,2.924-2.952,6.804-2.952,11.645v24.79h-5.028
		v-44.09h4.554v7.655c1.215-3.033,2.904-5.226,5.057-6.578c2.153-1.354,4.83-2.034,8.02-2.034c2.707,0,5.067,0.741,7.092,2.231
		c2.024,1.491,3.27,3.743,3.753,6.774c1.008-2.765,2.598-4.958,4.78-6.576c2.183-1.62,4.968-2.43,8.376-2.43
		c4.306,0,7.556,1.491,9.768,4.465c2.203,2.981,3.309,7.198,3.309,12.681v27.901H502.944z"/>
	<path fill="#0F406E" d="M543.133,475.806h22.32v4.781h-27.821v-55.734h5.501V475.806z"/>
	<path fill="#0F406E" d="M578.847,459.777l0.079-4.148h19.142c-0.109-4.938-1.038-8.811-2.796-11.596
		c-1.748-2.795-4.217-4.187-7.407-4.187c-3.832,0-6.914,1.728-9.255,5.184c-1.807,2.766-2.894,6.292-3.269,10.599v4.306
		c0.266,5.265,1.462,9.363,3.585,12.286c2.449,3.349,5.906,5.018,10.371,5.018c1.115,0,2.281-0.187,3.506-0.553
		c1.225-0.374,2.351-0.811,3.387-1.323c1.038-0.503,1.946-1.027,2.717-1.591c0.771-0.563,1.284-1.026,1.551-1.393l2.469,3.427
		c-0.523,0.534-1.353,1.127-2.469,1.8c-1.116,0.661-2.361,1.282-3.743,1.864c-1.383,0.594-2.806,1.078-4.267,1.483
		c-1.462,0.395-2.775,0.592-3.951,0.592c-6.113,0-10.726-1.975-13.826-5.936c-3.112-3.961-4.673-9.659-4.673-17.107
		c0-3.298,0.425-6.341,1.274-9.125c0.85-2.795,2.025-5.215,3.516-7.259c1.482-2.046,3.27-3.654,5.344-4.821
		c2.064-1.174,4.325-1.757,6.775-1.757c5.58,0,9.816,1.965,12.711,5.896c2.903,3.941,4.218,9.441,3.951,16.515l-0.079,1.984
		L578.847,459.777z"/>
	<path fill="#0F406E" d="M613.139,480.587v-44.09h4.543v8.612c1.165-3.348,2.736-5.787,4.701-7.298
		c1.966-1.512,4.069-2.271,6.302-2.271l5.738,1.353l-2.548,4.948l-3.674-1.038c-1.591,0-3.014,0.436-4.268,1.315
		c-1.244,0.878-2.291,2.103-3.141,3.664c-0.859,1.569-1.511,3.456-1.956,5.669c-0.454,2.203-0.682,4.662-0.682,7.367v21.769H613.139
		z"/>
	<path fill="#0F406E" d="M666.403,480.587v-28.147c0-3.822-0.869-6.895-2.598-9.207c-1.729-2.31-4.05-3.465-6.974-3.465
		c-1.915,0-3.634,0.384-5.145,1.155c-1.512,0.77-2.805,1.847-3.862,3.229c-1.067,1.383-1.877,3.07-2.439,5.057
		c-0.553,1.994-0.83,4.187-0.83,6.588v24.79h-5.027v-44.09h4.544v7.655c1.274-3.033,3.042-5.226,5.304-6.578
		c2.262-1.354,5.007-2.034,8.257-2.034c4.514,0,7.941,1.491,10.282,4.465c2.341,2.981,3.506,7.198,3.506,12.681v27.901H666.403z"/>
	<path fill="#0F406E" d="M689.841,459.777l0.079-4.148h19.131c-0.099-4.938-1.028-8.811-2.785-11.596
		c-1.759-2.795-4.227-4.187-7.417-4.187c-3.823,0-6.915,1.728-9.245,5.184c-1.807,2.766-2.903,6.292-3.269,10.599v4.306
		c0.267,5.265,1.462,9.363,3.585,12.286c2.439,3.349,5.896,5.018,10.36,5.018c1.116,0,2.291-0.187,3.516-0.553
		c1.216-0.374,2.351-0.811,3.388-1.323c1.037-0.503,1.937-1.027,2.707-1.591c0.77-0.563,1.294-1.026,1.561-1.393l2.469,3.427
		c-0.532,0.534-1.354,1.127-2.469,1.8c-1.116,0.661-2.37,1.282-3.754,1.864c-1.382,0.594-2.805,1.078-4.267,1.483
		c-1.462,0.395-2.774,0.592-3.939,0.592c-6.115,0-10.728-1.975-13.839-5.936c-3.11-3.961-4.661-9.659-4.661-17.107
		c0-3.298,0.425-6.341,1.273-9.125c0.851-2.795,2.015-5.215,3.508-7.259c1.49-2.046,3.269-3.654,5.342-4.821
		c2.075-1.174,4.337-1.757,6.776-1.757c5.579,0,9.817,1.965,12.72,5.896c2.895,3.941,4.208,9.441,3.951,16.515l-0.089,1.984
		L689.841,459.777z"/>
	<path fill="#0F406E" d="M750.918,480.587v-28.147c0-3.822-0.869-6.895-2.597-9.207c-1.729-2.31-4.05-3.465-6.974-3.465
		c-1.917,0-3.635,0.384-5.146,1.155c-1.512,0.77-2.806,1.847-3.862,3.229c-1.066,1.383-1.876,3.07-2.439,5.057
		c-0.553,1.994-0.829,4.187-0.829,6.588v24.79h-5.027v-44.09h4.543v7.655c1.273-3.033,3.042-5.226,5.304-6.578
		c2.262-1.354,5.008-2.034,8.258-2.034c4.512,0,7.939,1.491,10.28,4.465c2.341,2.981,3.506,7.198,3.506,12.681v27.901H750.918z"/>
</g>
</svg>
